<?xml version="1.0" encoding="utf-8"?>
<!-- Generator: Adobe Illustrator 16.0.0, SVG Export Plug-In . SVG Version: 6.00 Build 0)  -->
<!DOCTYPE svg PUBLIC "-//W3C//DTD SVG 1.1//EN" "http://www.w3.org/Graphics/SVG/1.1/DTD/svg11.dtd">
<svg version="1.1" id="Layer_1" xmlns="http://www.w3.org/2000/svg" xmlns:xlink="http://www.w3.org/1999/xlink" x="0px" y="0px"
	 width="74.65px" height="54px" viewBox="-15.591 0 74.65 54" enable-background="new -15.591 0 74.65 54" xml:space="preserve">
<title>cocteles</title>
<desc>Created with Sketch.</desc>
<g>
	<g>
		<path fill="#F75641" d="M3.046,12.886h49.039c3.384,0,5.405,2.798,5.405,6.446v19.813c0,3.648-2.022,7.647-5.405,7.647H18.888
			L6.914,54l2.65-7.207H3.046c-3.385,0-7.07-4-7.07-7.647V19.333C-4.023,15.684-0.338,12.886,3.046,12.886z"/>
	</g>
	<g>
		<path fill="#43E88E" d="M40.373,1.092H-8.662c-3.385,0-5.614,1.472-5.614,5.12v19.813c0,3.647,2.229,7.5,5.614,7.5h33.199
			l11.97,7.208l-2.65-7.208h6.517c3.388,0,8.328-3.853,8.328-7.5V6.212C48.701,2.564,43.761,1.092,40.373,1.092z"/>
		<g>
			<path d="M0.079,13.588v0.618c0,0.778-0.297,1.444-0.894,2c-0.594,0.556-1.312,0.833-2.152,0.833h-4.659V5.903h4.661
				c0.84,0,1.558,0.277,2.152,0.83c0.597,0.553,0.894,1.22,0.894,2.003V9.33c0,0.833-0.347,1.542-1.043,2.129
				C-0.268,12.058,0.079,12.766,0.079,13.588z M-1.481,9.314V8.736c0-0.39-0.149-0.727-0.447-1.005
				c-0.299-0.279-0.658-0.419-1.075-0.419h-3.1v3.411h3.1c0.411,0,0.769-0.139,1.07-0.416C-1.632,10.03-1.481,9.698-1.481,9.314z
				 M-1.481,14.206V13.62c0-0.391-0.149-0.726-0.447-1.005c-0.299-0.281-0.658-0.42-1.075-0.42h-3.083v3.418h3.083
				c0.411,0,0.769-0.139,1.07-0.414C-1.632,14.925-1.481,14.593-1.481,14.206z"/>
			<path d="M3.625,17.04V6.608c0-0.19,0.076-0.355,0.227-0.494c0.152-0.14,0.329-0.21,0.535-0.21c0.206,0,0.383,0.07,0.534,0.21
				c0.151,0.139,0.228,0.304,0.228,0.494v9.024h5.384c0.213,0,0.396,0.068,0.55,0.206c0.154,0.138,0.231,0.304,0.231,0.499
				c0,0.197-0.076,0.363-0.231,0.499c-0.154,0.137-0.336,0.205-0.55,0.205H3.625z"/>
			<path d="M20.479,6.934l1.678,3.16c0.236,0.43,0.354,0.896,0.354,1.399c0,0.491-0.118,0.955-0.354,1.39l-1.678,3.125
				c-0.358,0.687-0.96,1.03-1.813,1.03c-0.406,0-0.77-0.097-1.093-0.293c-0.324-0.196-0.567-0.441-0.731-0.737l-1.686-3.125
				c-0.225-0.407-0.335-0.871-0.335-1.39c0-0.521,0.11-0.987,0.335-1.399l1.686-3.16c0.38-0.687,0.989-1.03,1.824-1.03
				C19.512,5.904,20.116,6.248,20.479,6.934z M18.159,7.638l-1.577,2.967c-0.145,0.295-0.218,0.586-0.218,0.871
				c0,0.307,0.073,0.602,0.218,0.88l1.623,3c0.085,0.184,0.239,0.277,0.463,0.277c0.193,0,0.341-0.093,0.443-0.277l1.632-3
				c0.15-0.297,0.227-0.589,0.227-0.88c0-0.307-0.076-0.597-0.227-0.871l-1.597-2.967c-0.103-0.218-0.263-0.328-0.48-0.328
				C18.448,7.312,18.279,7.42,18.159,7.638z"/>
			<path d="M30.47,5.904h2.531c0.213,0,0.393,0.068,0.539,0.205c0.15,0.138,0.223,0.304,0.223,0.499
				c0,0.205-0.081,0.378-0.241,0.515s-0.335,0.205-0.522,0.205h-2.414c-0.236-0.002-0.441,0.099-0.617,0.307l-2.137,2.542
				c-0.18,0.201-0.271,0.48-0.27,0.838v3.898c0,0.2,0.074,0.371,0.222,0.512c0.148,0.14,0.328,0.209,0.54,0.209h3.1
				c0.207,0,0.383-0.069,0.535-0.209c0.15-0.141,0.226-0.306,0.226-0.494v-1.524h-1.577c-0.217,0-0.398-0.067-0.545-0.205
				c-0.144-0.137-0.216-0.304-0.216-0.499c0-0.194,0.072-0.361,0.216-0.498C30.208,12.068,30.39,12,30.606,12h3.1v2.933
				c0,0.583-0.223,1.077-0.67,1.491c-0.449,0.413-0.986,0.619-1.613,0.619h-3.102c-0.637,0-1.179-0.207-1.627-0.619
				c-0.451-0.414-0.676-0.911-0.676-1.491v-3.896c0-0.699,0.202-1.288,0.607-1.768l2.25-2.64c0.162-0.2,0.391-0.371,0.685-0.512
				C29.853,5.976,30.157,5.904,30.47,5.904z"/>
		</g>
	</g>
</g>
</svg>
