<?xml version="1.0" encoding="UTF-8" standalone="no"?>
<svg width="37px" height="54px" viewBox="0 0 37 54" version="1.1" xmlns="http://www.w3.org/2000/svg" xmlns:xlink="http://www.w3.org/1999/xlink">
    <!-- Generator: Sketch 3.7.2 (28276) - http://www.bohemiancoding.com/sketch -->
    <title>cocteles</title>
    <desc>Created with Sketch.</desc>
    <defs></defs>
    <g id="Page-1" stroke="none" stroke-width="1" fill="none" fill-rule="evenodd">
        <g id="cocteles" transform="translate(0.000000, 2.000000)">
            <path d="M30.1,51.4 C30,51.2 29.3,50.9 28.6,50.7 L24.3,49.5 C23.6,49.3 23,48.5 23,47.8 L22.4,26.7 C22.4,26 22,25.3 21.6,25.3 C21.2,25.3 20.8,25.9 20.8,26.7 L20,47.7 C20,48.4 19.4,49.2 18.7,49.4 L14.4,50.6 C13.7,50.8 13,51.1 12.9,51.3 C12.8,51.5 13.3,51.6 14,51.6 L29,51.6 C29.7,51.7 30.2,51.6 30.1,51.4 L30.1,51.4 Z" id="Shape" fill="#E3EAEF"></path>
            <path d="M36.1,5.5 L6.8,5.5 C6.1,5.5 5.8,6 6.2,6.6 L20.7,28.5 C21.1,29.1 21.8,29.1 22.2,28.5 L36.7,6.6 C37.1,6 36.9,5.5 36.1,5.5 L36.1,5.5 Z" id="XMLID_28_" fill="#F1F3F6"></path>
            <path d="M31.2,10 L11.8,10 C11.1,10 10.8,10.5 11.2,11.1 L20.7,24.8 C21.1,25.4 21.8,25.4 22.2,24.8 L31.7,11.1 C32.2,10.5 31.9,10 31.2,10 L31.2,10 Z" id="XMLID_29_" fill="#C75B43"></path>
            <path d="M15.5,10 C15.5,7.4 11.4,-0.4 5.1,0.2 C5.3,5.5 6.7,10.9 2.4,15.2" id="Shape" stroke="#96B850" stroke-width="2.9593"></path>
            <path d="M17.7,8.7 C16.6,8.3 16.1,9 15.5,9 C14.8,9 14.4,8.4 13.3,8.7 C12.4,9 12.1,10.1 12.2,11.4 C12.3,13 13.5,14.2 15.5,14.2 C17.5,14.2 18.7,13 18.8,11.4 C18.9,10.1 18.7,9 17.7,8.7 L17.7,8.7 Z" id="Shape" fill="#901F1F"></path>
            <path d="M6.5,13 C5.7,12.2 5,12.6 4.4,12.3 C3.8,12 3.7,11.2 2.5,11 C1.5,10.9 0.8,11.7 0.4,12.9 C-0.2,14.4 0.3,16 2.1,16.9 C3.9,17.8 5.5,17.2 6.3,15.8 C7,14.8 7.2,13.7 6.5,13 L6.5,13 Z" id="Shape" fill="#901F1F"></path>
            <path d="M36.1,5.5 L21.5,5.5 L21.5,10 L31.2,10 C31.9,10 32.2,10.5 31.8,11.1 L22.3,24.8 C22.1,25.1 21.8,25.3 21.5,25.3 L21.5,51.7 L29,51.7 C29.7,51.7 30.3,51.5 30.1,51.4 C30,51.2 29.3,50.9 28.6,50.7 L24.3,49.5 C23.6,49.3 23,48.5 23,47.8 L22.4,28.4 L36.8,6.7 C37.1,6 36.9,5.5 36.1,5.5 L36.1,5.5 Z" id="XMLID_31_" fill="#E9E8E7"></path>
        </g>
    </g>
</svg>