<?xml version="1.0" encoding="utf-8"?>
<!-- Generator: Adobe Illustrator 16.0.0, SVG Export Plug-In . SVG Version: 6.00 Build 0)  -->
<!DOCTYPE svg PUBLIC "-//W3C//DTD SVG 1.1//EN" "http://www.w3.org/Graphics/SVG/1.1/DTD/svg11.dtd">
<svg version="1.1" id="Layer_1" xmlns="http://www.w3.org/2000/svg" xmlns:xlink="http://www.w3.org/1999/xlink" x="0px" y="0px"
	 width="35.197px" height="54px" viewBox="0 0 35.197 54" enable-background="new 0 0 35.197 54" xml:space="preserve">
<title>cocteles</title>
<desc>Created with Sketch.</desc>
<g>
	<path fill-rule="evenodd" clip-rule="evenodd" fill="#EC1C24" d="M19.671,14.048c5.31,0.607,9.936,3.464,12.903,7.593
		c-0.69,0.05-1.379,0.125-2.049,0.235c-2.641-3.245-6.469-5.482-10.826-6.042C19.689,15.238,19.681,14.644,19.671,14.048
		 M15.394,15.834c-4.358,0.558-8.19,2.796-10.831,6.042c-0.67-0.11-1.357-0.186-2.048-0.235c2.969-4.13,7.597-6.987,12.91-7.594
		L15.394,15.834z M32.423,43.405c-3.369,4.557-8.778,7.511-14.879,7.511c-6.1,0-11.508-2.954-14.878-7.511
		c0.917,0.175,1.834,0.349,2.749,0.528c3.048,3.209,7.354,5.212,12.129,5.212c4.775,0,9.081-2.003,12.13-5.212
		C30.59,43.754,31.505,43.58,32.423,43.405"/>
	<path fill-rule="evenodd" clip-rule="evenodd" fill="#EC1C24" d="M20.026,10.962c6.2,0.71,11.6,4.044,15.063,8.863
		c-0.806,0.059-1.607,0.145-2.391,0.276c-3.082-3.789-7.554-6.4-12.639-7.054C20.048,12.352,20.037,11.657,20.026,10.962
		 M15.034,13.047C9.947,13.7,5.472,16.312,2.39,20.102C1.608,19.971,0.806,19.884,0,19.826c3.465-4.821,8.869-8.157,15.07-8.865
		L15.034,13.047z M34.913,45.235C30.981,50.553,24.666,54,17.544,54c-7.121,0-13.435-3.447-17.368-8.765
		c1.069,0.203,2.139,0.405,3.208,0.617c3.558,3.746,8.586,6.083,14.16,6.083c5.576,0,10.604-2.337,14.159-6.083
		C32.771,45.641,33.844,45.438,34.913,45.235"/>
	<path fill-rule="evenodd" clip-rule="evenodd" fill="#EC1C24" d="M12.117,25.796c0.083,1.782,1.803,3.656,1.338,5.314
		c-0.256,0.91-1.289,3.428-2.448,7.034c-1.258,3.908-1.046,9.273,2.205,5.839c6.5-6.863,10.384-3.685,10.384-6.627
		c0-2.704-1.742-3.606-1.742-5.63c0-2.125,1.076-3.104,1.335-4.282c0.773-3.518-1.755-0.275-3.172-0.256
		c-0.856,0.012-1.488-0.785-1.488-2.773c0-1.988-2.007-2.204-2.126-0.252C16.043,29.982,11.796,18.745,12.117,25.796"/>
	<polygon fill-rule="evenodd" clip-rule="evenodd" fill="#EC1C24" points="16.346,27.137 18.56,27.137 18.177,8.494 16.729,8.494 	
		"/>
	<path fill-rule="evenodd" clip-rule="evenodd" fill="#EC1C24" d="M19.664,6.584c-0.135-1.485-0.001-2.746,0.167-3.59
		c0.347-1.749-0.098-2.736-1.065-0.474l-2.325,5.432c-0.091,0.211-0.242,0.304,0.063,0.738c0.109,0.152,0.211,0.34,0.211,0.489
		l1.475-0.001c0-0.245,0.284-0.899,0.804-1.336C19.313,7.574,19.699,6.967,19.664,6.584"/>
	
		<rect x="18.108" y="3.136" transform="matrix(-0.9185 -0.3953 0.3953 -0.9185 34.1335 13.5123)" fill-rule="evenodd" clip-rule="evenodd" fill="#EC1C24" width="0.703" height="0.206"/>
	<path fill-rule="evenodd" clip-rule="evenodd" fill="#EC1C24" d="M18.08,3.417l-0.224-0.095c-0.178-0.159,0-0.566,0.235-0.547
		l0.222,0.095C18.411,2.994,18.238,3.401,18.08,3.417"/>
	
		<rect x="17.731" y="4.014" transform="matrix(-0.9205 -0.3907 0.3907 -0.9205 33.1179 14.9727)" fill-rule="evenodd" clip-rule="evenodd" fill="#EC1C24" width="0.702" height="0.208"/>
	<path fill-rule="evenodd" clip-rule="evenodd" fill="#EC1C24" d="M17.706,4.295L17.48,4.198c-0.177-0.157,0.001-0.565,0.234-0.547
		l0.226,0.096C18.037,3.871,17.861,4.278,17.706,4.295"/>
	
		<rect x="17.356" y="4.891" transform="matrix(-0.9188 -0.3947 0.3947 -0.9188 32.0044 16.5721)" fill-rule="evenodd" clip-rule="evenodd" fill="#EC1C24" width="0.701" height="0.207"/>
	<path fill-rule="evenodd" clip-rule="evenodd" fill="#EC1C24" d="M17.329,5.172l-0.225-0.097c-0.176-0.157,0-0.563,0.234-0.545
		l0.225,0.095C17.661,4.749,17.485,5.157,17.329,5.172"/>
	
		<rect x="16.978" y="5.769" transform="matrix(-0.9205 -0.3908 0.3908 -0.9205 30.9865 18.0524)" fill-rule="evenodd" clip-rule="evenodd" fill="#EC1C24" width="0.703" height="0.209"/>
	<path fill-rule="evenodd" clip-rule="evenodd" fill="#EC1C24" d="M16.953,6.051L16.73,5.955c-0.178-0.158,0-0.565,0.232-0.548
		l0.225,0.097C17.284,5.626,17.11,6.035,16.953,6.051"/>
	
		<rect x="16.604" y="6.648" transform="matrix(-0.9194 -0.3933 0.3933 -0.9194 29.8883 19.6283)" fill-rule="evenodd" clip-rule="evenodd" fill="#EC1C24" width="0.703" height="0.208"/>
	<path fill-rule="evenodd" clip-rule="evenodd" fill="#EC1C24" d="M16.578,6.927l-0.224-0.094c-0.178-0.16,0-0.565,0.235-0.548
		l0.223,0.096C16.909,6.505,16.735,6.913,16.578,6.927"/>
	
		<rect x="16.228" y="7.526" transform="matrix(-0.9191 -0.3939 0.3939 -0.9191 28.8138 21.1706)" fill-rule="evenodd" clip-rule="evenodd" fill="#EC1C24" width="0.703" height="0.205"/>
	<path fill-rule="evenodd" clip-rule="evenodd" fill="#EC1C24" d="M16.204,7.806L15.979,7.71c-0.178-0.159,0-0.566,0.233-0.548
		l0.224,0.096C16.533,7.383,16.359,7.791,16.204,7.806"/>
</g>
</svg>
