<?xml version="1.0" encoding="utf-8"?>
<!-- Generator: Adobe Illustrator 16.0.0, SVG Export Plug-In . SVG Version: 6.00 Build 0)  -->
<!DOCTYPE svg PUBLIC "-//W3C//DTD SVG 1.1//EN" "http://www.w3.org/Graphics/SVG/1.1/DTD/svg11.dtd">
<svg version="1.1" id="Layer_1" xmlns="http://www.w3.org/2000/svg" xmlns:xlink="http://www.w3.org/1999/xlink" x="0px" y="0px"
	 width="37px" height="54px" viewBox="0 0 37 54" enable-background="new 0 0 37 54" xml:space="preserve">
<title>cocteles</title>
<desc>Created with Sketch.</desc>
<g>
	<rect y="12.5" fill="#F9F9F9" width="37" height="41"/>
	<polygon fill="#F75641" points="33,44.69 0,53.425 0,12.281 33,4.564 	"/>
	<g opacity="0.6">
		<path d="M6.54,35.187H6.31l-1.323,0.889h5.408c0.125,0,0.23,0.042,0.317,0.125c0.088,0.084,0.131,0.185,0.131,0.303
			c0,0.12-0.044,0.221-0.133,0.304c-0.089,0.084-0.195,0.126-0.315,0.126H3.754v-1.108l1.606-1.055l-1.606-1.088v-1.089h6.641
			c0.125,0,0.23,0.044,0.317,0.131c0.088,0.086,0.131,0.189,0.131,0.309c0,0.115-0.044,0.216-0.133,0.302
			c-0.089,0.085-0.195,0.127-0.315,0.127H5.008l1.281,0.868H6.54c0.121,0,0.225,0.042,0.314,0.128
			c0.089,0.084,0.133,0.186,0.133,0.301c0,0.119-0.044,0.221-0.133,0.304C6.765,35.145,6.66,35.187,6.54,35.187z"/>
		<path d="M4.662,26.707v3.032h2.182v-1.307c0-0.116,0.044-0.216,0.133-0.302c0.089-0.085,0.193-0.127,0.314-0.127
			c0.128,0,0.236,0.042,0.326,0.125c0.089,0.083,0.133,0.185,0.133,0.304v1.307h2.199v-3.043c0-0.116,0.043-0.216,0.13-0.301
			c0.088-0.085,0.193-0.128,0.317-0.128c0.125,0,0.23,0.044,0.317,0.13c0.088,0.087,0.131,0.19,0.131,0.31v3.891H3.754v-3.891
			c0-0.119,0.045-0.222,0.136-0.31c0.091-0.086,0.199-0.13,0.322-0.13c0.121,0,0.227,0.044,0.315,0.13
			C4.617,26.485,4.662,26.588,4.662,26.707z"/>
		<path d="M4.213,19.962h6.631v1.15l-5.505,2.311h5.057c0.125,0,0.23,0.043,0.317,0.125c0.088,0.084,0.131,0.185,0.131,0.304
			s-0.043,0.22-0.131,0.304c-0.087,0.083-0.192,0.125-0.317,0.125H3.754v-1.133l5.494-2.318H4.213c-0.124,0-0.231-0.043-0.322-0.13
			c-0.091-0.087-0.136-0.189-0.136-0.309s0.045-0.22,0.133-0.304C3.977,20.003,4.085,19.962,4.213,19.962z"/>
		<path d="M1.855,15.265c-0.028-0.061-0.042-0.124-0.042-0.189c0-0.122,0.047-0.223,0.141-0.301c0.094-0.078,0.2-0.117,0.317-0.117
			c0.192,0,0.327,0.08,0.406,0.24l0.751,1.557c0.029,0.062,0.043,0.124,0.043,0.189c0,0.122-0.047,0.223-0.141,0.301
			s-0.2,0.118-0.317,0.118c-0.193,0-0.328-0.08-0.406-0.24L1.855,15.265z M9.5,17.976H4.213c-0.124,0-0.231-0.042-0.322-0.127
			c-0.091-0.085-0.136-0.186-0.136-0.301s0.045-0.216,0.133-0.301c0.089-0.085,0.194-0.127,0.315-0.127H9.5
			c0.118,0,0.22-0.043,0.307-0.128s0.13-0.186,0.13-0.301v-1.756c0-0.119-0.042-0.22-0.128-0.303
			c-0.085-0.083-0.188-0.125-0.309-0.125H4.213c-0.128,0-0.236-0.042-0.325-0.125c-0.088-0.083-0.133-0.185-0.133-0.304
			s0.045-0.221,0.133-0.304c0.089-0.083,0.197-0.125,0.325-0.125h5.276c0.37,0,0.688,0.127,0.955,0.38
			c0.267,0.254,0.4,0.556,0.4,0.906v1.756c0,0.354-0.131,0.657-0.395,0.909C10.186,17.85,9.869,17.976,9.5,17.976z"/>
	</g>
</g>
</svg>
