<?xml version="1.0" encoding="utf-8"?>
<!-- Generator: Adobe Illustrator 16.0.0, SVG Export Plug-In . SVG Version: 6.00 Build 0)  -->
<!DOCTYPE svg PUBLIC "-//W3C//DTD SVG 1.1//EN" "http://www.w3.org/Graphics/SVG/1.1/DTD/svg11.dtd">
<svg version="1.1" id="Layer_1" xmlns="http://www.w3.org/2000/svg" xmlns:xlink="http://www.w3.org/1999/xlink" x="0px" y="0px"
	 width="89.684px" height="54px" viewBox="-24.231 0 89.684 54" enable-background="new -24.231 0 89.684 54" xml:space="preserve">
<title>cocteles</title>
<desc>Created with Sketch.</desc>
<g>
	<g>
		<path fill="#F0F4F7" d="M34.294,0.204L12.252,0.872c-0.465,0.014-0.716,0.361-0.68,0.802L15.1,45.711
			c0.071,0.859,0.831,1.54,1.694,1.514l15.776-0.479c0.859-0.026,1.58-0.752,1.6-1.613l0.852-44.169
			C35.031,0.52,34.757,0.188,34.294,0.204z"/>
		<path fill="#89C130" d="M13.07,5.683l2.922,36.419c0.031,0.43,0.413,0.77,0.843,0.758l15.426-0.467
			c0.434-0.014,0.791-0.38,0.798-0.808l0.71-36.529L13.07,5.683z"/>
		<path fill="#E5E5E5" d="M34.294,0.204l-11.26,0.34l0.146,4.834L33.77,5.057l-0.71,36.529c-0.007,0.432-0.366,0.794-0.798,0.808
			l-7.95,0.241l0.132,4.359l8.128-0.248c0.859-0.026,1.579-0.752,1.599-1.613l0.853-44.169C35.031,0.52,34.757,0.188,34.294,0.204z"
			/>
		<path fill="#81AF28" d="M23.18,5.379l1.131,37.255l7.95-0.241c0.434-0.014,0.791-0.38,0.798-0.808l0.71-36.529L23.18,5.379z"/>
	</g>
	<g>
		<path fill="#F0F4F7" d="M64.395,9.568L43.112,3.793c-0.448-0.122-0.788,0.138-0.884,0.571L32.79,47.521
			c-0.181,0.841,0.348,1.717,1.186,1.942l15.23,4.133c0.831,0.223,1.728-0.262,1.999-1.077l13.667-42.012
			C65.009,10.084,64.844,9.689,64.395,9.568z"/>
		<path fill="#EF3543" d="M42.496,8.637l-7.802,35.691c-0.093,0.423,0.173,0.855,0.588,0.972l14.894,4.042
			c0.42,0.111,0.869-0.135,1.002-0.54l11.306-34.745L42.496,8.637z"/>
		<path fill="#E5E5E5" d="M64.395,9.568L53.522,6.617l-1.266,4.667l10.226,2.773L51.176,48.802c-0.132,0.405-0.581,0.651-1.001,0.54
			l-7.676-2.086l-1.141,4.213l7.848,2.128c0.831,0.223,1.728-0.262,1.999-1.077l13.667-42.012
			C65.009,10.084,64.844,9.689,64.395,9.568z"/>
		<path fill="#F41C2C" d="M52.256,11.286L42.5,47.256l7.676,2.086c0.42,0.111,0.869-0.135,1.002-0.54l11.306-34.745L52.256,11.286z"
			/>
	</g>
	<g>
		<g>
			<path fill="#F0F4F7" d="M5.17,4.098l-21.241,5.927c-0.447,0.124-0.607,0.524-0.467,0.942l13.972,41.911
				c0.275,0.816,1.178,1.297,2.009,1.062L14.644,49.7c0.832-0.233,1.355-1.109,1.167-1.949L6.062,4.66
				C5.964,4.228,5.617,3.973,5.17,4.098z"/>
			<path fill="#1F5CBF" d="M-14.121,14.503L-2.564,49.16c0.137,0.409,0.588,0.648,1.003,0.533l14.864-4.146
				c0.416-0.117,0.678-0.558,0.583-0.976L5.825,8.935L-14.121,14.503z"/>
			<path fill="#E5E5E5" d="M5.17,4.098L-5.68,7.125l1.3,4.657L5.825,8.934l8.061,35.635c0.095,0.419-0.167,0.857-0.583,0.976
				l-7.661,2.137l1.172,4.202l7.83-2.186c0.832-0.234,1.355-1.109,1.167-1.95L6.062,4.66C5.964,4.228,5.617,3.973,5.17,4.098z"/>
			<path fill="#2056A5" d="M-4.38,11.784L5.642,47.685l7.661-2.137c0.416-0.117,0.678-0.558,0.583-0.976L5.825,8.935L-4.38,11.784z"
				/>
		</g>
		<polygon fill="#00BDD6" points="-23.465,6.998 -14.754,6.912 11.655,44.871 10.365,45.521 -15.564,8.433 -23.364,8.536 		"/>
	</g>
</g>
</svg>
