<?xml version="1.0" encoding="utf-8"?>
<!-- Generator: Adobe Illustrator 16.0.0, SVG Export Plug-In . SVG Version: 6.00 Build 0)  -->
<!DOCTYPE svg PUBLIC "-//W3C//DTD SVG 1.1//EN" "http://www.w3.org/Graphics/SVG/1.1/DTD/svg11.dtd">
<svg version="1.1" id="Layer_1" xmlns="http://www.w3.org/2000/svg" xmlns:xlink="http://www.w3.org/1999/xlink" x="0px" y="0px"
	 width="36.854px" height="41.702px" viewBox="0 0 36.854 41.702" enable-background="new 0 0 36.854 41.702" xml:space="preserve">
<g>
	<g>
		<path fill="#F0F4F7" d="M35.351,0.742L1.098,0.65c-0.72-0.002-1.127,0.296-1.097,0.687l3.082,38.915
			c0.063,0.758,1.207,1.381,2.55,1.386l24.512,0.064c1.339,0.004,2.494-0.614,2.572-1.374l3.724-38.896
			C36.478,1.043,36.071,0.743,35.351,0.742z"/>
		<path fill="#6081C4" d="M2.109,4.917l2.555,32.182c0.027,0.379,0.601,0.689,1.27,0.694l23.97,0.063
			c0.671,0.001,1.25-0.309,1.284-0.687l3.084-32.168L2.109,4.917z"/>
		<path fill="#E5E5E5" d="M35.351,0.742L17.854,0.695l-0.035,4.264l16.454,0.043L31.188,37.17c-0.034,0.378-0.613,0.688-1.284,0.687
			l-12.355-0.032l-0.032,3.846l12.629,0.032c1.339,0.004,2.494-0.614,2.572-1.374l3.724-38.896
			C36.478,1.043,36.071,0.743,35.351,0.742z"/>
		<path fill="#4D71AA" d="M17.816,4.959l-0.268,32.865l12.355,0.032c0.671,0.001,1.25-0.309,1.284-0.687l3.084-32.168L17.816,4.959z
			"/>
	</g>
	<path id="XMLID_2_" fill="#FFFFFF" d="M19.958,16.83v-1.867c0-0.911,0.606-1.124,1.032-1.124s2.622,0,2.622,0V9.836l-3.61-0.015
		c-4.006,0-4.917,2.985-4.917,4.896v2.112h-2.317v2.823v1.849h2.336c0,5.296,0,11.682,0,11.682h4.672c0,0,0-6.449,0-11.682h3.468
		l0.168-1.834l0.258-2.838H19.958z"/>
</g>
</svg>
