<?xml version="1.0" encoding="utf-8"?>
<!-- Generator: Adobe Illustrator 16.0.0, SVG Export Plug-In . SVG Version: 6.00 Build 0)  -->
<!DOCTYPE svg PUBLIC "-//W3C//DTD SVG 1.1//EN" "http://www.w3.org/Graphics/SVG/1.1/DTD/svg11.dtd">
<svg version="1.1" id="Layer_1" xmlns="http://www.w3.org/2000/svg" xmlns:xlink="http://www.w3.org/1999/xlink" x="0px" y="0px"
	 width="36.854px" height="41.702px" viewBox="0 0 36.854 41.702" enable-background="new 0 0 36.854 41.702" xml:space="preserve">
<g>
	<g>
		<path fill="#F0F4F7" d="M35.351,0.743L1.099,0.651C0.378,0.649-0.029,0.947,0.001,1.337l3.082,38.916
			c0.064,0.758,1.207,1.381,2.551,1.385l24.512,0.064c1.339,0.004,2.494-0.613,2.572-1.373l3.723-38.896
			C36.478,1.043,36.072,0.744,35.351,0.743z"/>
		<path fill="#864C2D" d="M2.109,4.917l2.556,32.181c0.027,0.379,0.601,0.689,1.271,0.695l23.969,0.063
			c0.672,0.002,1.251-0.309,1.285-0.686l3.084-32.168L2.109,4.917z"/>
		<path fill="#E5E5E5" d="M35.351,0.743L17.854,0.696l-0.035,4.264l16.454,0.043l-3.084,32.168
			c-0.034,0.377-0.613,0.688-1.285,0.686l-12.354-0.031l-0.032,3.846l12.629,0.031c1.339,0.004,2.494-0.613,2.572-1.373
			l3.723-38.896C36.478,1.043,36.072,0.744,35.351,0.743z"/>
		<path fill="#753F27" d="M17.817,4.959l-0.268,32.866l12.354,0.031c0.672,0.002,1.251-0.309,1.285-0.686l3.084-32.168L17.817,4.959
			z"/>
	</g>
	<path fill="#FFFFFF" d="M24.972,10.651H10.64c-2.49,0-4.516,2.024-4.516,4.515v4.77v1.757v7.807c0,2.488,2.025,4.516,4.516,4.516
		h14.332c2.489,0,4.517-2.027,4.517-4.516v-7.806v-1.758v-4.77C29.489,12.675,27.461,10.651,24.972,10.651z M26.268,13.345
		l0.516-0.004v0.517V17.3l-3.945,0.013l-0.015-3.958L26.268,13.345z M14.472,19.935c0.75-1.036,1.963-1.714,3.334-1.714
		c1.373,0,2.586,0.678,3.334,1.714c0.09,0.126,0.172,0.257,0.248,0.393c0.335,0.594,0.531,1.276,0.531,2.002
		c0,2.269-1.847,4.112-4.113,4.112c-2.268,0-4.111-1.844-4.111-4.112c0-0.727,0.195-1.409,0.531-2.003
		C14.302,20.192,14.382,20.061,14.472,19.935z M27.212,29.499c0,1.234-1.006,2.238-2.24,2.238H10.64
		c-1.235,0-2.239-1.004-2.239-2.238v-8.353v-1.211h3.487c-0.088,0.214-0.162,0.434-0.225,0.658
		c-0.158,0.554-0.245,1.135-0.245,1.737c0,3.524,2.866,6.39,6.388,6.39c3.522,0,6.389-2.865,6.389-6.39
		c0-0.602-0.088-1.183-0.246-1.737c-0.064-0.225-0.139-0.444-0.226-0.658h3.489v1.212V29.499z"/>
</g>
</svg>
