<?xml version="1.0" encoding="utf-8"?>
<!-- Generator: Adobe Illustrator 16.0.0, SVG Export Plug-In . SVG Version: 6.00 Build 0)  -->
<!DOCTYPE svg PUBLIC "-//W3C//DTD SVG 1.1//EN" "http://www.w3.org/Graphics/SVG/1.1/DTD/svg11.dtd">
<svg version="1.1" id="Layer_1" xmlns="http://www.w3.org/2000/svg" xmlns:xlink="http://www.w3.org/1999/xlink" x="0px" y="0px"
	 width="36.854px" height="41.702px" viewBox="0 0 36.854 41.702" enable-background="new 0 0 36.854 41.702" xml:space="preserve">
<g>
	<g>
		<path fill="#F0F4F7" d="M35.351,0.743L1.098,0.651c-0.72-0.002-1.127,0.296-1.097,0.687l3.082,38.916
			c0.063,0.758,1.207,1.381,2.55,1.385l24.512,0.064c1.339,0.004,2.494-0.613,2.572-1.373l3.724-38.896
			C36.478,1.043,36.071,0.744,35.351,0.743z"/>
		<path fill="#23B180" d="M2.109,4.917l2.555,32.181c0.027,0.379,0.601,0.689,1.27,0.695l23.97,0.063
			c0.671,0.002,1.25-0.309,1.284-0.686l3.084-32.168L2.109,4.917z"/>
		<path fill="#E5E5E5" d="M35.351,0.743L17.854,0.696l-0.035,4.264l16.454,0.043l-3.084,32.168
			c-0.034,0.377-0.613,0.688-1.284,0.686l-12.355-0.031l-0.032,3.846l12.629,0.031c1.339,0.004,2.494-0.613,2.572-1.373
			l3.724-38.896C36.478,1.043,36.071,0.744,35.351,0.743z"/>
		<path fill="#1E9B6B" d="M17.816,4.959l-0.268,32.866l12.355,0.031c0.671,0.002,1.25-0.309,1.284-0.686l3.084-32.168L17.816,4.959z
			"/>
	</g>
	<g>
		<path fill="#FFFFFF" d="M30.428,21.089C30.272,14.939,25.204,10,18.966,10c-6.165,0-11.191,4.826-11.457,10.878
			c-0.007,0.167-0.012,0.333-0.012,0.502c0,2.15,0.601,4.161,1.646,5.875l-2.069,6.107l6.35-2.018
			c1.644,0.9,3.533,1.414,5.543,1.414c6.335,0,11.469-5.094,11.469-11.379C30.436,21.281,30.431,21.187,30.428,21.089z
			 M18.966,30.946c-1.959,0-3.783-0.584-5.306-1.584L9.955,30.54l1.206-3.553c-1.155-1.576-1.836-3.515-1.836-5.609
			c0-0.313,0.017-0.623,0.046-0.928c0.472-4.842,4.595-8.641,9.596-8.641c5.063,0,9.225,3.895,9.61,8.821
			c0.019,0.246,0.032,0.495,0.032,0.747C28.608,26.653,24.282,30.946,18.966,30.946z"/>
		<path id="XMLID_3_" fill="#FFFFFF" d="M24.219,23.674c-0.281-0.141-1.665-0.814-1.922-0.906s-0.445-0.139-0.633,0.139
			c-0.187,0.281-0.725,0.908-0.89,1.094c-0.164,0.187-0.328,0.21-0.609,0.069c-0.281-0.138-1.187-0.435-2.26-1.384
			c-0.836-0.74-1.401-1.653-1.563-1.931c-0.165-0.279-0.018-0.431,0.123-0.568c0.127-0.126,0.281-0.326,0.422-0.489
			c0.041-0.047,0.073-0.091,0.102-0.134c0.069-0.104,0.113-0.2,0.179-0.33c0.094-0.187,0.047-0.35-0.023-0.49
			c-0.069-0.139-0.633-1.514-0.866-2.07c-0.235-0.559-0.468-0.466-0.633-0.466c-0.164,0-0.35-0.023-0.538-0.023
			c-0.188,0-0.492,0.07-0.75,0.35s-0.984,0.953-0.984,2.326c0,0.323,0.058,0.645,0.146,0.95c0.283,0.984,0.896,1.792,1.002,1.935
			c0.14,0.185,1.945,3.093,4.802,4.212c2.858,1.115,2.858,0.744,3.375,0.697c0.515-0.047,1.663-0.674,1.897-1.328
			c0.233-0.65,0.233-1.209,0.164-1.325C24.686,23.883,24.5,23.814,24.219,23.674z"/>
	</g>
</g>
</svg>
