<?xml version="1.0" encoding="utf-8"?>
<!-- Generator: Adobe Illustrator 16.0.0, SVG Export Plug-In . SVG Version: 6.00 Build 0)  -->
<!DOCTYPE svg PUBLIC "-//W3C//DTD SVG 1.1//EN" "http://www.w3.org/Graphics/SVG/1.1/DTD/svg11.dtd">
<svg version="1.1" id="Layer_1" xmlns="http://www.w3.org/2000/svg" xmlns:xlink="http://www.w3.org/1999/xlink" x="0px" y="0px"
	 width="36.854px" height="41.702px" viewBox="0 0 36.854 41.702" enable-background="new 0 0 36.854 41.702" xml:space="preserve">
<g>
	<g>
		<path fill="#F0F4F7" d="M35.351,0.743L1.099,0.651C0.378,0.649-0.029,0.947,0.001,1.337l3.082,38.916
			c0.064,0.758,1.207,1.381,2.551,1.385l24.512,0.064c1.339,0.004,2.494-0.613,2.572-1.373l3.723-38.896
			C36.478,1.043,36.072,0.744,35.351,0.743z"/>
		<path fill="#F15A4B" d="M2.109,4.917l2.556,32.181c0.027,0.379,0.601,0.689,1.271,0.695l23.969,0.063
			c0.672,0.002,1.251-0.309,1.285-0.686l3.084-32.168L2.109,4.917z"/>
		<path fill="#E5E5E5" d="M35.351,0.743L17.854,0.696l-0.035,4.264l16.454,0.043l-3.084,32.168
			c-0.034,0.377-0.613,0.688-1.285,0.686l-12.354-0.031l-0.032,3.846l12.629,0.031c1.339,0.004,2.494-0.613,2.572-1.373
			l3.723-38.896C36.478,1.043,36.072,0.744,35.351,0.743z"/>
		<path fill="#E04D46" d="M17.817,4.959l-0.268,32.866l12.354,0.031c0.672,0.002,1.251-0.309,1.285-0.686l3.084-32.168L17.817,4.959
			z"/>
	</g>
	<path fill="#FFFFFF" d="M29.101,17.144c0,0-0.227-1.681-0.927-2.419c-0.889-0.969-1.885-0.975-2.339-1.031
		c-3.272-0.245-8.175-0.245-8.175-0.245H17.65c0,0-4.904,0-8.174,0.246c-0.456,0.056-1.451,0.062-2.341,1.031
		c-0.699,0.738-0.928,2.419-0.928,2.419s-0.233,1.97-0.233,3.942v0.237v1.611c0,1.972,0.233,3.942,0.233,3.942
		s0.229,1.68,0.928,2.418c0.89,0.969,2.058,0.939,2.577,1.039c1.869,0.188,7.943,0.246,7.943,0.246s4.907-0.008,8.18-0.254
		c0.454-0.057,1.45-0.063,2.339-1.031c0.7-0.74,0.927-2.418,0.927-2.418s0.236-1.971,0.236-3.942v-1.508v-0.34
		C29.337,19.115,29.101,17.144,29.101,17.144z M21.554,21.766l-6.311,3.409l-0.001-5.249v-1.596l2.845,1.55L21.554,21.766z"/>
</g>
</svg>
