<?xml version="1.0" encoding="UTF-8" standalone="no"?>
<svg width="25px" height="49px" viewBox="0 0 25 49" version="1.1" xmlns="http://www.w3.org/2000/svg" xmlns:xlink="http://www.w3.org/1999/xlink">
    <!-- Generator: Sketch 3.7.2 (28276) - http://www.bohemiancoding.com/sketch -->
    <title>ubicacion</title>
    <desc>Created with Sketch.</desc>
    <defs></defs>
    <g id="Page-1" stroke="none" stroke-width="1" fill="none" fill-rule="evenodd">
        <g id="ubicacion">
            <g id="Capa_1">
                <path d="M24.8,9.5 C24.8,2.9 19.4,0.7 12.8,0.7 C6.2,0.7 0.8,2.9 0.8,9.5 C0.8,11.5 3.3,16.5 3.3,18.4 C3.3,20.3 0.8,22 0.8,24 C0.8,26.7 4.9,31.8 6.3,33.8 C9.9,41.9 12.8,48.9 12.8,48.9 C12.8,48.9 15.7,41.9 19.3,33.8 C20.8,31.8 24.8,26.7 24.8,24 C24.8,22 22.3,20.3 22.3,18.4 C22.4,16.5 24.8,11.6 24.8,9.5 L24.8,9.5 Z M12.8,27.6 C9.8,27.6 7.4,25.2 7.4,22.2 C7.4,19.2 9.8,16.8 12.8,16.8 C15.8,16.8 18.2,19.2 18.2,22.2 C18.3,25.1 15.8,27.6 12.8,27.6 L12.8,27.6 Z" id="Shape" fill="#BF2B26"></path>
                <path d="M24.8,9.5 C24.8,2.9 19.3,0.7 12.7,0.7 L12.6,0.7 L12.6,16.7 L12.7,16.7 C15.7,16.7 18.2,19.1 18.2,22.1 C18.2,25.1 15.7,27.5 12.7,27.5 L12.6,27.5 L12.6,48.7 C12.6,48.8 12.7,48.9 12.7,48.9 C12.7,48.9 15.6,41.9 19.2,33.8 C20.7,31.8 24.8,26.7 24.8,24 C24.8,22 22.3,20.3 22.3,18.4 C22.4,16.5 24.8,11.6 24.8,9.5 L24.8,9.5 Z" id="XMLID_1_" fill="#A12B29"></path>
            </g>
        </g>
    </g>
</svg>